# xmcd
#
# Track frame offsets: 
#        150
#        13027
#        28920
#        54595
#        71265
#        104679
#        119822
#        131192
#        154427
#        170730
#        185959
#        200550
#        213780
#
# Disc length: 3012 seconds
#
# Revision: 0
# Processed by: cddbd v1.5.2PL0 Copyright (c) Steve Scherf et al.
# Submitted via: ExactAudioCopy v0.99pb5
#
DISCID=d10bc20d
DTITLE=Roy Mannino Band - Juke Joint
DYEAR=1997
DGENRE=Blues
TTITLE0=Juke Joint
TTITLE1=Don't You Call My Number
TTITLE2=Help Me
TTITLE3=Bark
TTITLE4=Bourbon And Beer
TTITLE5=Back Breaker
TTITLE6=Next Time You See Me
TTITLE7=Take It Easy Greasy
TTITLE8=My Little Woman
TTITLE9=Miss Rachel
TTITLE10=Got Love If You Want It
TTITLE11=No Good Woman
TTITLE12=Texas Trash
EXTD=
EXTT0=
EXTT1=
EXTT2=
EXTT3=
EXTT4=
EXTT5=
EXTT6=
EXTT7=
EXTT8=
EXTT9=
EXTT10=
EXTT11=
EXTT12=
PLAYORDER=
